<svg width="20" height="13" viewBox="0 0 20 13" fill="none" xmlns="http://www.w3.org/2000/svg"><path d="M9.953 12.286h-.972L8.711 10H1.943l-.27 2.286H.701V8.74h1.062c.096-.132.222-.366.378-.702.156-.348.306-.828.45-1.44.156-.624.288-1.392.396-2.304.12-.924.192-2.022.216-3.294H8.64v7.74h1.314v3.546ZM7.2 8.74V2.26H4.5a32.074 32.074 0 0 1-.126 1.656c-.06.588-.144 1.182-.252 1.782a13.692 13.692 0 0 1-.378 1.674 7.386 7.386 0 0 1-.54 1.368H7.2Zm4.033-3.24c0-1.524.336-2.688 1.008-3.492.684-.816 1.662-1.224 2.934-1.224.672 0 1.254.114 1.746.342.504.216.918.534 1.242.954.324.408.564.906.72 1.494.156.576.234 1.218.234 1.926 0 1.524-.342 2.694-1.026 3.51-.672.804-1.644 1.206-2.916 1.206-.672 0-1.26-.108-1.764-.324a3.319 3.319 0 0 1-1.224-.954 4.222 4.222 0 0 1-.72-1.494 7.573 7.573 0 0 1-.234-1.944Zm1.494 0c0 .456.042.894.126 1.314.096.42.24.786.432 1.098.192.312.444.564.756.756.312.192.69.288 1.134.288 1.632.012 2.448-1.14 2.448-3.456 0-.468-.048-.912-.144-1.332a3.32 3.32 0 0 0-.414-1.098 2.12 2.12 0 0 0-.756-.738c-.312-.192-.69-.288-1.134-.288-1.632-.012-2.448 1.14-2.448 3.456Z" fill="#000"/></svg>