<svg width="20" height="24" viewBox="0 0 20 24" fill="none" xmlns="http://www.w3.org/2000/svg">
<g opacity="0.3">
<path d="M9.95333 20.286H8.98133L8.71133 18H1.94333L1.67333 20.286H0.701328V16.74H1.76333C1.85933 16.608 1.98533 16.374 2.14133 16.038C2.29733 15.69 2.44733 15.21 2.59133 14.598C2.74733 13.974 2.87933 13.206 2.98733 12.294C3.10733 11.37 3.17933 10.272 3.20333 9H8.63933V16.74H9.95333V20.286ZM7.19933 16.74V10.26H4.49933C4.47533 10.764 4.43333 11.316 4.37333 11.916C4.31333 12.504 4.22933 13.098 4.12133 13.698C4.02533 14.286 3.89933 14.844 3.74333 15.372C3.58733 15.9 3.40733 16.356 3.20333 16.74H7.19933ZM11.2316 13.5C11.2316 11.976 11.5676 10.812 12.2396 10.008C12.9236 9.192 13.9016 8.784 15.1736 8.784C15.8456 8.784 16.4276 8.898 16.9196 9.126C17.4236 9.342 17.8376 9.66 18.1616 10.08C18.4856 10.488 18.7256 10.986 18.8816 11.574C19.0376 12.15 19.1156 12.792 19.1156 13.5C19.1156 15.024 18.7736 16.194 18.0896 17.01C17.4176 17.814 16.4456 18.216 15.1736 18.216C14.5016 18.216 13.9136 18.108 13.4096 17.892C12.9176 17.664 12.5096 17.346 12.1856 16.938C11.8616 16.518 11.6216 16.02 11.4656 15.444C11.3096 14.856 11.2316 14.208 11.2316 13.5ZM12.7256 13.5C12.7256 13.956 12.7676 14.394 12.8516 14.814C12.9476 15.234 13.0916 15.6 13.2836 15.912C13.4756 16.224 13.7276 16.476 14.0396 16.668C14.3516 16.86 14.7296 16.956 15.1736 16.956C16.8056 16.968 17.6216 15.816 17.6216 13.5C17.6216 13.032 17.5736 12.588 17.4776 12.168C17.3936 11.748 17.2556 11.382 17.0636 11.07C16.8716 10.758 16.6196 10.512 16.3076 10.332C15.9956 10.14 15.6176 10.044 15.1736 10.044C13.5416 10.032 12.7256 11.184 12.7256 13.5Z" fill="black" fill-opacity="0.4"/>
</g>
</svg>
