<svg width="16" height="11" viewBox="0 0 16 11" fill="none" xmlns="http://www.w3.org/2000/svg"><path d="M.359 5.5c0-1.524.336-2.688 1.008-3.492C2.05 1.192 3.029.784 4.3.784c.672 0 1.254.114 1.746.342.504.216.918.534 1.242.954.324.408.564.906.72 1.494.156.576.234 1.218.234 1.926 0 1.524-.342 2.694-1.026 3.51-.672.804-1.644 1.206-2.916 1.206-.672 0-1.26-.108-1.764-.324a3.319 3.319 0 0 1-1.224-.954 4.222 4.222 0 0 1-.72-1.494A7.573 7.573 0 0 1 .359 5.5Zm1.494 0c0 .456.042.894.126 1.314.096.42.24.786.432 1.098.192.312.444.564.756.756.312.192.69.288 1.134.288 1.632.012 2.448-1.14 2.448-3.456 0-.468-.048-.912-.144-1.332A3.32 3.32 0 0 0 6.19 3.07a2.12 2.12 0 0 0-.756-.738c-.312-.192-.69-.288-1.134-.288-1.632-.012-2.448 1.14-2.448 3.456Zm14.103-3.24h-2.808V10h-1.44V2.26H8.9V1h7.056v1.26Z" fill="#000"/></svg>